<?xml version="1.0" encoding="UTF-8" standalone="no"?><!DOCTYPE svg PUBLIC "-//W3C//DTD SVG 1.1//EN" "http://www.w3.org/Graphics/SVG/1.1/DTD/svg11.dtd"><!-- Generated by graphviz version 2.40.1 (20161225.0304)
 --><!-- Title: %0 Pages: 1 --><svg xmlns="http://www.w3.org/2000/svg" xmlns:xlink="http://www.w3.org/1999/xlink" width="1331pt" height="404pt" viewBox="0.00 0.00 1330.69 404.00">
<g id="graph0" class="graph" transform="scale(1 1) rotate(0) translate(4 400)">
<title>%0</title>
<polygon fill="#ffffff" stroke="transparent" points="-4,4 -4,-400 1326.6934,-400 1326.6934,4 -4,4"/>
<!-- [root] aws_default_vpc.default (expand) -->
<g id="node1" class="node">
<title>[root] aws_default_vpc.default (expand)</title>
<polygon fill="none" stroke="#000000" points="548.0576,-108 394.6124,-108 394.6124,-72 548.0576,-72 548.0576,-108"/>
<text text-anchor="middle" x="471.335" y="-85.8" font-family="Times,serif" font-size="14.00" fill="#000000">aws_default_vpc.default</text>
</g>
<!-- [root] provider[&quot;registry.terraform.io/hashicorp/aws&quot;] -->
<g id="node7" class="node">
<title>[root] provider["registry.terraform.io/hashicorp/aws"]</title>
<polygon fill="none" stroke="#000000" points="667.335,-36 392.3445,-18 667.335,0 942.3254,-18 667.335,-36"/>
<text text-anchor="middle" x="667.335" y="-13.8" font-family="Times,serif" font-size="14.00" fill="#000000">provider["registry.terraform.io/hashicorp/aws"]</text>
</g>
<!-- [root] aws_default_vpc.default (expand)&#45;&gt;[root] provider[&quot;registry.terraform.io/hashicorp/aws&quot;] -->
<g id="edge1" class="edge">
<title>[root] aws_default_vpc.default (expand)-&gt;[root] provider["registry.terraform.io/hashicorp/aws"]</title>
<path fill="none" stroke="#000000" d="M520.5411,-71.9243C549.6787,-61.2207 586.5424,-47.6789 616.0387,-36.8435"/>
<polygon fill="#000000" stroke="#000000" points="617.5577,-40.0143 625.7375,-33.2807 615.1439,-33.4436 617.5577,-40.0143"/>
</g>
<!-- [root] aws_instance.http_server (expand) -->
<g id="node2" class="node">
<title>[root] aws_instance.http_server (expand)</title>
<polygon fill="none" stroke="#000000" points="698.9466,-252 541.7234,-252 541.7234,-216 698.9466,-216 698.9466,-252"/>
<text text-anchor="middle" x="620.335" y="-229.8" font-family="Times,serif" font-size="14.00" fill="#000000">aws_instance.http_server</text>
</g>
<!-- [root] aws_security_group.http_server_sg (expand) -->
<g id="node3" class="node">
<title>[root] aws_security_group.http_server_sg (expand)</title>
<polygon fill="none" stroke="#000000" points="383.4981,-180 169.1719,-180 169.1719,-144 383.4981,-144 383.4981,-180"/>
<text text-anchor="middle" x="276.335" y="-157.8" font-family="Times,serif" font-size="14.00" fill="#000000">aws_security_group.http_server_sg</text>
</g>
<!-- [root] aws_instance.http_server (expand)&#45;&gt;[root] aws_security_group.http_server_sg (expand) -->
<g id="edge2" class="edge">
<title>[root] aws_instance.http_server (expand)-&gt;[root] aws_security_group.http_server_sg (expand)</title>
<path fill="none" stroke="#000000" d="M541.4144,-217.4817C491.0886,-206.9484 425.5492,-193.2309 372.2309,-182.0712"/>
<polygon fill="#000000" stroke="#000000" points="372.9288,-178.6415 362.4239,-180.0186 371.4947,-185.4931 372.9288,-178.6415"/>
</g>
<!-- [root] data.aws_ami.aws&#45;linux&#45;2&#45;leatest (expand) -->
<g id="node4" class="node">
<title>[root] data.aws_ami.aws-linux-2-leatest (expand)</title>
<polygon fill="none" stroke="#000000" points="769.2057,-108 565.4643,-108 565.4643,-72 769.2057,-72 769.2057,-108"/>
<text text-anchor="middle" x="667.335" y="-85.8" font-family="Times,serif" font-size="14.00" fill="#000000">data.aws_ami.aws-linux-2-leatest</text>
</g>
<!-- [root] aws_instance.http_server (expand)&#45;&gt;[root] data.aws_ami.aws&#45;linux&#45;2&#45;leatest (expand) -->
<g id="edge3" class="edge">
<title>[root] aws_instance.http_server (expand)-&gt;[root] data.aws_ami.aws-linux-2-leatest (expand)</title>
<path fill="none" stroke="#000000" d="M626.2876,-215.7623C634.3394,-191.0928 648.7766,-146.8598 658.2049,-117.9731"/>
<polygon fill="#000000" stroke="#000000" points="661.6551,-118.6821 661.4307,-108.0896 655.0006,-116.5101 661.6551,-118.6821"/>
</g>
<!-- [root] data.aws_subnets.default_subnets (expand) -->
<g id="node6" class="node">
<title>[root] data.aws_subnets.default_subnets (expand)</title>
<polygon fill="none" stroke="#000000" points="606.7804,-180 401.8896,-180 401.8896,-144 606.7804,-144 606.7804,-180"/>
<text text-anchor="middle" x="504.335" y="-157.8" font-family="Times,serif" font-size="14.00" fill="#000000">data.aws_subnets.default_subnets</text>
</g>
<!-- [root] aws_instance.http_server (expand)&#45;&gt;[root] data.aws_subnets.default_subnets (expand) -->
<g id="edge4" class="edge">
<title>[root] aws_instance.http_server (expand)-&gt;[root] data.aws_subnets.default_subnets (expand)</title>
<path fill="none" stroke="#000000" d="M591.0633,-215.8314C576.2262,-206.6221 558.0335,-195.3301 542.1488,-185.4706"/>
<polygon fill="#000000" stroke="#000000" points="543.9395,-182.4628 533.5973,-180.1628 540.248,-188.4102 543.9395,-182.4628"/>
</g>
<!-- [root] var.aws_key_pair -->
<g id="node8" class="node">
<title>[root] var.aws_key_pair</title>
<polygon fill="none" stroke="#000000" points="771.9565,-180 662.7135,-180 662.7135,-144 777.9565,-144 777.9565,-174 771.9565,-180"/>
<polyline fill="none" stroke="#000000" points="771.9565,-180 771.9565,-174 "/>
<polyline fill="none" stroke="#000000" points="777.9565,-174 771.9565,-174 "/>
<text text-anchor="middle" x="720.335" y="-157.8" font-family="Times,serif" font-size="14.00" fill="#000000">var.aws_key_pair</text>
</g>
<!-- [root] aws_instance.http_server (expand)&#45;&gt;[root] var.aws_key_pair -->
<g id="edge5" class="edge">
<title>[root] aws_instance.http_server (expand)-&gt;[root] var.aws_key_pair</title>
<path fill="none" stroke="#000000" d="M645.5692,-215.8314C658.123,-206.7927 673.4633,-195.7476 686.9741,-186.0198"/>
<polygon fill="#000000" stroke="#000000" points="689.0386,-188.8463 695.1088,-180.1628 684.9484,-183.1655 689.0386,-188.8463"/>
</g>
<!-- [root] aws_security_group.http_server_sg (expand)&#45;&gt;[root] aws_default_vpc.default (expand) -->
<g id="edge6" class="edge">
<title>[root] aws_security_group.http_server_sg (expand)-&gt;[root] aws_default_vpc.default (expand)</title>
<path fill="none" stroke="#000000" d="M325.29,-143.9243C351.8318,-134.1243 384.8173,-121.945 412.7208,-111.6422"/>
<polygon fill="#000000" stroke="#000000" points="414.1912,-114.8303 422.3598,-108.0831 411.7665,-108.2636 414.1912,-114.8303"/>
</g>
<!-- [root] data.aws_ami.aws&#45;linux&#45;2&#45;leatest (expand)&#45;&gt;[root] provider[&quot;registry.terraform.io/hashicorp/aws&quot;] -->
<g id="edge7" class="edge">
<title>[root] data.aws_ami.aws-linux-2-leatest (expand)-&gt;[root] provider["registry.terraform.io/hashicorp/aws"]</title>
<path fill="none" stroke="#000000" d="M667.335,-71.8314C667.335,-64.131 667.335,-54.9743 667.335,-46.4166"/>
<polygon fill="#000000" stroke="#000000" points="670.8351,-46.4132 667.335,-36.4133 663.8351,-46.4133 670.8351,-46.4132"/>
</g>
<!-- [root] data.aws_ami_ids.aws&#45;linux&#45;2&#45;leatest&#45;ids (expand) -->
<g id="node5" class="node">
<title>[root] data.aws_ami_ids.aws-linux-2-leatest-ids (expand)</title>
<polygon fill="none" stroke="#000000" points="1081.0366,-252 833.6334,-252 833.6334,-216 1081.0366,-216 1081.0366,-252"/>
<text text-anchor="middle" x="957.335" y="-229.8" font-family="Times,serif" font-size="14.00" fill="#000000">data.aws_ami_ids.aws-linux-2-leatest-ids</text>
</g>
<!-- [root] data.aws_ami_ids.aws&#45;linux&#45;2&#45;leatest&#45;ids (expand)&#45;&gt;[root] provider[&quot;registry.terraform.io/hashicorp/aws&quot;] -->
<g id="edge8" class="edge">
<title>[root] data.aws_ami_ids.aws-linux-2-leatest-ids (expand)-&gt;[root] provider["registry.terraform.io/hashicorp/aws"]</title>
<path fill="none" stroke="#000000" d="M940.6973,-215.8862C910.6095,-183.8686 844.1483,-116.4654 778.335,-72 758.7899,-58.7947 735.5322,-46.9623 715.3676,-37.7633"/>
<polygon fill="#000000" stroke="#000000" points="716.6046,-34.4825 706.0469,-33.596 713.7474,-40.8729 716.6046,-34.4825"/>
</g>
<!-- [root] data.aws_subnets.default_subnets (expand)&#45;&gt;[root] aws_default_vpc.default (expand) -->
<g id="edge9" class="edge">
<title>[root] data.aws_subnets.default_subnets (expand)-&gt;[root] aws_default_vpc.default (expand)</title>
<path fill="none" stroke="#000000" d="M496.0077,-143.8314C492.362,-135.8771 488.0041,-126.369 483.9723,-117.5723"/>
<polygon fill="#000000" stroke="#000000" points="487.1227,-116.0456 479.7744,-108.4133 480.7593,-118.9622 487.1227,-116.0456"/>
</g>
<!-- [root] output.aws_instance_details (expand) -->
<g id="node9" class="node">
<title>[root] output.aws_instance_details (expand)</title>
<ellipse fill="none" stroke="#000000" cx="231.335" cy="-306" rx="180.5632" ry="18"/>
<text text-anchor="middle" x="231.335" y="-301.8" font-family="Times,serif" font-size="14.00" fill="#000000">[root] output.aws_instance_details (expand)</text>
</g>
<!-- [root] output.aws_instance_details (expand)&#45;&gt;[root] aws_instance.http_server (expand) -->
<g id="edge10" class="edge">
<title>[root] output.aws_instance_details (expand)-&gt;[root] aws_instance.http_server (expand)</title>
<path fill="none" stroke="#000000" d="M317.1843,-290.1102C380.7924,-278.3369 467.227,-262.3387 531.5282,-250.4373"/>
<polygon fill="#000000" stroke="#000000" points="532.4552,-253.8252 541.6512,-248.5636 531.1812,-246.9421 532.4552,-253.8252"/>
</g>
<!-- [root] output.aws_security_group_http_server_details (expand) -->
<g id="node10" class="node">
<title>[root] output.aws_security_group_http_server_details (expand)</title>
<ellipse fill="none" stroke="#000000" cx="255.335" cy="-234" rx="255.1701" ry="18"/>
<text text-anchor="middle" x="255.335" y="-229.8" font-family="Times,serif" font-size="14.00" fill="#000000">[root] output.aws_security_group_http_server_details (expand)</text>
</g>
<!-- [root] output.aws_security_group_http_server_details (expand)&#45;&gt;[root] aws_security_group.http_server_sg (expand) -->
<g id="edge11" class="edge">
<title>[root] output.aws_security_group_http_server_details (expand)-&gt;[root] aws_security_group.http_server_sg (expand)</title>
<path fill="none" stroke="#000000" d="M260.6342,-215.8314C262.9048,-208.0463 265.6096,-198.7729 268.129,-190.1347"/>
<polygon fill="#000000" stroke="#000000" points="271.5244,-190.9933 270.9645,-180.4133 264.8044,-189.0332 271.5244,-190.9933"/>
</g>
<!-- [root] output.http_server_public_dns (expand) -->
<g id="node11" class="node">
<title>[root] output.http_server_public_dns (expand)</title>
<ellipse fill="none" stroke="#000000" cx="620.335" cy="-306" rx="189.8223" ry="18"/>
<text text-anchor="middle" x="620.335" y="-301.8" font-family="Times,serif" font-size="14.00" fill="#000000">[root] output.http_server_public_dns (expand)</text>
</g>
<!-- [root] output.http_server_public_dns (expand)&#45;&gt;[root] aws_instance.http_server (expand) -->
<g id="edge12" class="edge">
<title>[root] output.http_server_public_dns (expand)-&gt;[root] aws_instance.http_server (expand)</title>
<path fill="none" stroke="#000000" d="M620.335,-287.8314C620.335,-280.131 620.335,-270.9743 620.335,-262.4166"/>
<polygon fill="#000000" stroke="#000000" points="623.8351,-262.4132 620.335,-252.4133 616.8351,-262.4133 623.8351,-262.4132"/>
</g>
<!-- [root] provider[&quot;registry.terraform.io/hashicorp/aws&quot;] (close) -->
<g id="node12" class="node">
<title>[root] provider["registry.terraform.io/hashicorp/aws"] (close)</title>
<ellipse fill="none" stroke="#000000" cx="1075.335" cy="-306" rx="247.2168" ry="18"/>
<text text-anchor="middle" x="1075.335" y="-301.8" font-family="Times,serif" font-size="14.00" fill="#000000">[root] provider["registry.terraform.io/hashicorp/aws"] (close)</text>
</g>
<!-- [root] provider[&quot;registry.terraform.io/hashicorp/aws&quot;] (close)&#45;&gt;[root] aws_instance.http_server (expand) -->
<g id="edge13" class="edge">
<title>[root] provider["registry.terraform.io/hashicorp/aws"] (close)-&gt;[root] aws_instance.http_server (expand)</title>
<path fill="none" stroke="#000000" d="M971.8039,-289.6171C892.4969,-277.0674 784.2547,-259.9389 708.9287,-248.0192"/>
<polygon fill="#000000" stroke="#000000" points="709.4116,-244.5522 698.9874,-246.4461 708.3175,-251.4661 709.4116,-244.5522"/>
</g>
<!-- [root] provider[&quot;registry.terraform.io/hashicorp/aws&quot;] (close)&#45;&gt;[root] data.aws_ami_ids.aws&#45;linux&#45;2&#45;leatest&#45;ids (expand) -->
<g id="edge14" class="edge">
<title>[root] provider["registry.terraform.io/hashicorp/aws"] (close)-&gt;[root] data.aws_ami_ids.aws-linux-2-leatest-ids (expand)</title>
<path fill="none" stroke="#000000" d="M1045.863,-288.0171C1030.6574,-278.7391 1011.9262,-267.3099 995.6152,-257.3574"/>
<polygon fill="#000000" stroke="#000000" points="997.1997,-254.2241 986.8402,-252.0032 993.5536,-260.1996 997.1997,-254.2241"/>
</g>
<!-- [root] root -->
<g id="node13" class="node">
<title>[root] root</title>
<ellipse fill="none" stroke="#000000" cx="425.335" cy="-378" rx="50.9823" ry="18"/>
<text text-anchor="middle" x="425.335" y="-373.8" font-family="Times,serif" font-size="14.00" fill="#000000">[root] root</text>
</g>
<!-- [root] root&#45;&gt;[root] output.aws_instance_details (expand) -->
<g id="edge15" class="edge">
<title>[root] root-&gt;[root] output.aws_instance_details (expand)</title>
<path fill="none" stroke="#000000" d="M389.7524,-364.7941C361.2785,-354.2264 320.8098,-339.2071 287.9027,-326.9942"/>
<polygon fill="#000000" stroke="#000000" points="288.9905,-323.6647 278.3976,-323.4665 286.5549,-330.2273 288.9905,-323.6647"/>
</g>
<!-- [root] root&#45;&gt;[root] output.aws_security_group_http_server_details (expand) -->
<g id="edge16" class="edge">
<title>[root] root-&gt;[root] output.aws_security_group_http_server_details (expand)</title>
<path fill="none" stroke="#000000" d="M375.1286,-374.5666C276.0284,-367.2774 62.9485,-348.8656 41.335,-324 9.0248,-286.8283 56.3193,-264.6369 114.5843,-251.5941"/>
<polygon fill="#000000" stroke="#000000" points="115.3552,-255.0085 124.4053,-249.4999 113.8953,-248.1625 115.3552,-255.0085"/>
</g>
<!-- [root] root&#45;&gt;[root] output.http_server_public_dns (expand) -->
<g id="edge17" class="edge">
<title>[root] root-&gt;[root] output.http_server_public_dns (expand)</title>
<path fill="none" stroke="#000000" d="M460.648,-364.9613C489.2173,-354.4127 530.0125,-339.3498 563.2176,-327.0895"/>
<polygon fill="#000000" stroke="#000000" points="564.6413,-330.2949 572.8099,-323.5477 562.2166,-323.7282 564.6413,-330.2949"/>
</g>
<!-- [root] root&#45;&gt;[root] provider[&quot;registry.terraform.io/hashicorp/aws&quot;] (close) -->
<g id="edge18" class="edge">
<title>[root] root-&gt;[root] provider["registry.terraform.io/hashicorp/aws"] (close)</title>
<path fill="none" stroke="#000000" d="M474.1906,-372.5883C569.5539,-362.025 783.8389,-338.2888 929.0483,-322.2041"/>
<polygon fill="#000000" stroke="#000000" points="929.8276,-325.6392 939.3814,-321.0595 929.0568,-318.6818 929.8276,-325.6392"/>
</g>
</g>
</svg>